<svg xmlns="http://www.w3.org/2000/svg" viewBox="0 0 400 129"><style type="text/css">
	.st0{fill:#000000;}
</style><path class="st0" d="M68.7 53.7c3.8 4.3 5.6 10.6 5.6 18.8 -0.1 17.2-8.5 25.8-25.4 25.8 -14.8 0-22.1-4.2-22.1-12.6V30.7h13.9v19.6c1.7-1 3.7-1.8 5.9-2.3 2.2-0.5 4.2-0.8 5.9-0.8C59.5 47.2 64.9 49.4 68.7 53.7zM60.1 73.4c0-9.9-3.7-14.8-11.1-14.8 -1.3 0-2.8 0.2-4.3 0.5 -1.5 0.4-2.9 0.8-4 1.5v21.4c0 3 2.7 4.5 8 4.5C56.3 86.5 60.1 82.1 60.1 73.4z"/><path class="st0" d="M87.4 42.2V31h15v11.2H87.4zM87.6 98V49.5h14.5l0.1 48.5H87.6z"/><path class="st0" d="M129.3 49.3c5.2-1.2 9.8-1.7 13.9-1.7 6.9 0 12.2 1.4 15.6 4.1 3.5 2.7 5.3 7.2 5.3 13.4v33H149.6V67.9c0-5.6-3.2-8.4-9.5-8.4 -1.4 0-2.9 0.2-4.4 0.5 -1.5 0.3-2.7 0.7-3.5 1.2v36.9h-14.5V53C120.3 51.7 124.1 50.4 129.3 49.3z"/><path class="st0" d="M215.2 51c4.3 2.4 6.4 6.8 6.4 13.1l-0.1 22.6c-0.1 4-2 6.9-5.9 8.6 -3.9 1.8-9.6 2.7-17.1 2.7 -14 0-21-5.4-21-16.3 0-4.6 1.4-8.2 4.3-10.8 2.9-2.6 7.1-3.9 12.8-3.9 2.3 0 4.7 0.3 7 0.9 2.3 0.6 4.3 1.4 6 2.3v-3c0-5.5-3.5-8.2-10.6-8.2 -2.7 0-5.5 0.5-8.4 1.5 -2.9 1-5.1 2.2-6.8 3.5V51.6c1.7-1.1 4.3-2.1 7.8-2.9 3.5-0.8 7.3-1.2 11.3-1.2C206.2 47.4 210.9 48.6 215.2 51zM205.7 87.5c1.3-0.4 1.9-1.3 1.9-2.6v-7.4c-2.2-0.8-4.6-1.1-7.3-1.1 -3.1 0-5.3 0.5-6.7 1.4 -1.4 0.9-2.1 2.4-2.1 4.3 0 1.8 0.7 3.3 2.2 4.4 1.5 1.1 3.2 1.7 5.2 1.7C202.2 88.1 204.5 87.9 205.7 87.5z"/><path class="st0" d="M236.8 54c1-0.8 2.7-1.8 5.1-2.8 2.4-1 5.2-1.9 8.2-2.7 3-0.7 5.9-1.1 8.7-1.1 5.4 0 9.1 0.8 11.2 2.4v10.6c-2.6-0.6-6.3-0.9-11.2-0.9 -3 0-5.5 0.2-7.5 0.5v38h-14.5V54z"/><polygon class="st0" points="289.5 98 289.5 58.7 304 58.7 304.1 98 "/><path class="st0" d="M325.4 91.6c-4-4.3-6-10.6-6-19.1 0-8.8 2-15.2 6-19.3 4-4 10.1-6 18.2-6 8.1 0 14.2 2.1 18.3 6.2 4.1 4.1 6.1 10.5 6.1 19.1 0 8.3-2.1 14.6-6.3 19 -4.2 4.3-10.3 6.5-18.1 6.5C335.5 98 329.4 95.9 325.4 91.6zM351.4 83.2c1.8-2.4 2.6-6 2.6-10.6 0-5.1-0.9-8.7-2.6-10.9 -1.7-2.2-4.4-3.3-7.9-3.3 -3.6 0-6.3 1.1-7.9 3.3 -1.6 2.2-2.4 5.8-2.4 10.9 0 4.9 0.8 8.4 2.5 10.8 1.7 2.3 4.3 3.5 7.8 3.5C347 86.8 349.6 85.6 351.4 83.2z"/><path class="st0" d="M278 54.5v4.2h11.5V47.6C289.5 47.6 285.6 51.6 278 54.5z"/></svg>
