<?xml version="1.0" encoding="utf-8"?>
<!-- Generator: Adobe Illustrator 24.1.3, SVG Export Plug-In . SVG Version: 6.00 Build 0)  -->
<svg version="1.1" id="Layer_1" xmlns="http://www.w3.org/2000/svg" xmlns:xlink="http://www.w3.org/1999/xlink" x="0px" y="0px"
	 viewBox="0 0 100 120" style="enable-background:new 0 0 100 120;" xml:space="preserve">
<style type="text/css">
	.st0{fill:#9FD19F;}
	.st1{fill:#A1D0A0;}
	.st2{fill:#A7D5A7;}
	.st3{fill:#9DD09D;}
</style>
<g>
	<path class="st0" d="M67.9,61c-2.7,0.3-5.7-0.2-8.6-1.1c-3.7-1.2-6.9-3.1-9.3-6.3c-3-4-4.1-8.6-4.5-13.5c-0.3-3.3-0.2-6.7,0.3-10
		c0.5-3.9,1.6-7.6,4.2-10.7c2.1-2.6,4.8-4.4,8-5.5c4.2-1.5,8.5-1.7,12.8-1.5c4.9,0.2,9.5,1.3,13.5,4.3c2.8,2.1,4.7,4.8,5.8,8
		c1.5,4.1,2,8.5,1.9,12.9c-0.2,5.4-1.1,10.7-4.4,15.2c-1.7,2.5-4,4.3-6.8,5.7C77.6,60.1,73.5,61.2,67.9,61z M58.6,37.6
		c0.1,1,0.3,2.9,0.7,4.8c0.5,2.4,1.4,4.5,3.4,6.1c2,1.5,4.3,1.8,6.7,1.6c3.2-0.2,5.6-1.7,7.1-4.5c1.6-2.8,1.9-6,1.9-9.2
		c0-2.9-0.3-5.7-1.5-8.4c-1-2.4-2.8-3.9-5.4-4.5c-2.2-0.5-4.3-0.5-6.5,0c-2,0.5-3.6,1.6-4.6,3.5C58.9,30,58.7,33.3,58.6,37.6z"/>
	<path class="st1" d="M50.6,88.5c-11.8,0-23.6,0-35.4,0c-3,0-5.1-1.9-5.3-4.5c-0.3-3.5,2.5-5.5,5.3-5.5c0.1,0,0.3,0,0.4,0
		c23.4,0,46.8,0,70.2,0c3,0,4.8,1.3,5.6,3.9c0.8,2.9-1.6,6.1-4.6,6.1C74.8,88.5,62.7,88.5,50.6,88.5z"/>
	<path class="st1" d="M50.8,107.1c-11.8,0-23.6,0-35.5,0c-2.3,0-4.1-0.9-5-3.1c-1.3-3.2,0.7-6.6,4.1-6.9c0.2,0,0.4,0,0.6,0
		c23.8,0,47.6,0,71.4,0c2.2,0,4,1.2,4.9,3.3c0.7,1.8,0.2,4-1.4,5.4c-1.1,1-2.4,1.3-3.8,1.3C74.3,107.1,62.6,107.1,50.8,107.1z"/>
	<path class="st2" d="M17.1,12.6c0,0.8,0,1.3,0,1.9c0,2.5,0,5,0,7.5c0,0.9,0.3,1.2,1.2,1.2c3.8,0,7.6,0,11.4,0
		c1.3,0,1.4,0.1,1.4,1.5c0,11.7,0,23.5,0,35.2c0,1-0.3,1.3-1.3,1.3c-3.9-0.1-7.8,0-11.7,0c-1.2,0-1.4-0.1-1.4-1.4
		c0-11.6,0-23.1,0-34.7c0-1.5,0-1.5-1.5-1.5c-2.8,0-5.6,0-8.5,0c-0.8,0-1.2-0.2-1.1-1.1c0-0.3,0-0.6,0-0.8c-0.3-1.7,0.3-2.7,2-3.4
		c3.2-1.2,6-3.1,8.6-5.3C16.4,12.9,16.6,12.9,17.1,12.6z M30.4,42.3c0-5.8,0-11.7,0-17.5c0-0.8-0.2-1-1-1c-3.7,0-7.4,0-11.2,0
		c-0.9,0-1,0.3-1,1.1c0,11.6,0,23.2,0,34.8c0,0.8,0.2,1.1,1,1.1c3.7,0,7.4,0,11.1,0c0.9,0,1.1-0.3,1.1-1.1
		C30.4,53.9,30.4,48.1,30.4,42.3z"/>
	<path class="st3" d="M30.4,42.3c0,5.8,0,11.5,0,17.3c0,0.8-0.2,1.1-1.1,1.1c-3.7,0-7.4,0-11.1,0c-0.9,0-1-0.3-1-1.1
		c0-11.6,0-23.2,0-34.8c0-0.8,0.2-1.1,1-1.1c3.7,0,7.4,0,11.2,0c0.8,0,1,0.3,1,1C30.4,30.7,30.4,36.5,30.4,42.3z"/>
</g>
</svg>
